<?xml version="1.0" standalone="no"?>
<!DOCTYPE svg PUBLIC "-//W3C//DTD SVG 20010904//EN"
 "http://www.w3.org/TR/2001/REC-SVG-20010904/DTD/svg10.dtd">
<svg version="1.0" xmlns="http://www.w3.org/2000/svg"
 width="850.000000pt" height="413.000000pt" viewBox="0 0 850.000000 413.000000"
 preserveAspectRatio="xMidYMid meet">

<g transform="translate(0.000000,413.000000) scale(0.100000,-0.100000)"
fill="#f62f32" stroke="none">
<path d="M1351 3990 c-202 -26 -425 -102 -594 -204 -133 -80 -214 -144 -317
-252 -187 -198 -303 -415 -366 -689 -25 -107 -28 -139 -28 -305 -1 -211 14
-317 70 -489 76 -232 224 -489 526 -909 152 -211 187 -256 192 -241 31 88 218
764 226 815 18 113 -1 205 -71 346 -83 166 -106 313 -73 460 25 110 322 941
341 956 9 6 24 12 33 12 25 0 60 -29 60 -50 0 -11 -47 -196 -105 -412 -58
-216 -105 -400 -105 -409 0 -47 88 -68 114 -26 8 12 57 180 110 372 128 471
123 454 150 466 27 13 60 0 75 -29 6 -12 -23 -136 -100 -422 -60 -223 -109
-412 -109 -421 0 -23 22 -47 51 -54 55 -13 61 1 179 435 110 407 123 440 164
440 22 0 56 -31 56 -51 0 -10 -47 -196 -105 -412 -58 -216 -105 -404 -105
-418 0 -52 69 -79 104 -41 9 11 64 192 121 403 58 211 108 392 111 402 3 10
16 24 28 33 31 19 73 4 82 -30 3 -13 -13 -115 -35 -227 -22 -112 -65 -334 -96
-494 -47 -249 -60 -300 -91 -363 -44 -89 -112 -161 -254 -266 -164 -122 -219
-183 -255 -286 -33 -92 -265 -1031 -259 -1043 4 -7 57 -68 118 -137 225 -257
254 -280 349 -280 92 0 134 36 378 330 127 154 381 480 516 665 369 504 524
811 574 1140 18 115 15 351 -5 465 -107 612 -562 1074 -1180 1201 -116 24
-358 33 -475 19z"/>
</g>
<g transform="translate(0.000000,413.000000) scale(0.100000,-0.100000)"
fill="#000" stroke="none">
<path d="M4313 2988 c4 -447 6 -458 63 -577 36 -74 142 -180 216 -214 91 -43
161 -57 288 -57 191 0 299 40 411 150 75 74 112 139 140 248 17 68 19 112 19
469 l0 393 -144 0 -145 0 -3 -402 c-4 -448 -2 -438 -74 -518 -47 -52 -109 -75
-205 -75 -65 0 -85 5 -134 30 -69 36 -118 99 -134 175 -7 32 -11 192 -11 420
l0 370 -146 0 -146 0 5 -412z"/>
<path d="M6045 3368 c-7 -18 -119 -297 -248 -620 l-235 -588 153 0 153 0 16
43 c9 23 29 78 45 122 l29 80 270 3 270 2 49 -125 48 -125 147 0 c82 0 148 4
148 8 0 8 -63 168 -383 974 l-102 258 -173 0 -173 0 -14 -32z m273 -476 c46
-119 86 -223 89 -229 4 -10 -35 -13 -177 -13 -169 0 -182 1 -176 18 39 108
172 442 176 442 3 0 43 -98 88 -218z"/>
<path d="M7110 2780 l0 -620 145 0 145 0 0 620 0 620 -145 0 -145 0 0 -620z"/>
<path d="M4896 1914 c-173 -42 -326 -164 -405 -325 -69 -140 -86 -275 -55
-426 52 -252 241 -441 488 -488 361 -69 680 122 766 461 89 346 -129 708 -468
780 -85 17 -249 17 -326 -2z m316 -263 c141 -61 226 -214 215 -389 -15 -252
-239 -406 -480 -332 -166 51 -271 242 -239 431 26 152 115 261 248 303 66 21
193 15 256 -13z"/>
<path d="M6325 1914 c-173 -43 -326 -167 -402 -324 -23 -47 -47 -110 -54 -140
-17 -71 -17 -230 0 -300 19 -79 71 -186 124 -255 219 -290 701 -316 962 -51
221 224 244 583 55 838 -76 104 -188 182 -318 225 -69 22 -291 27 -367 7z
m328 -272 c78 -39 129 -92 171 -181 29 -61 31 -74 31 -171 0 -97 -2 -110 -32
-172 -38 -81 -97 -142 -172 -176 -48 -23 -69 -27 -151 -27 -82 0 -103 4 -152
27 -115 54 -184 147 -209 282 -29 154 40 325 161 401 102 65 243 71 353 17z"/>
<path d="M3470 1295 l0 -615 135 0 135 0 0 230 0 230 235 0 235 0 0 125 0 125
-235 0 -235 0 0 135 0 135 280 0 280 0 0 125 0 125 -415 0 -415 0 0 -615z"/>
<path d="M7290 1295 l0 -617 283 5 c312 5 341 9 476 74 101 48 196 143 245
246 52 108 69 197 63 332 -8 170 -57 288 -166 395 -74 74 -132 110 -241 148
-73 26 -82 26 -367 30 l-293 4 0 -617z m611 343 c126 -55 199 -205 186 -381
-9 -126 -45 -199 -125 -258 -62 -45 -121 -60 -269 -66 l-133 -6 0 368 0 367
153 -4 c110 -3 162 -9 188 -20z"/>
</g>
</svg>
